<svg width="39" height="30" viewBox="0 0 39 30" fill="none" xmlns="http://www.w3.org/2000/svg">
    <path d="M29.5 15C29.5 6.71573 31.6267 -6.44599e-07 34.25 -4.15258e-07C36.8734 -1.85917e-07 39 6.71573 39 15C39 23.2843 36.8734 30 34.25 30C31.6266 30 29.5 23.2843 29.5 15Z" fill="#181818"/>
    <path d="M21.5 15C21.5 6.71573 23.2909 -5.4282e-07 25.5 -3.49691e-07C27.7091 -1.56562e-07 29.5 6.71573 29.5 15C29.5 23.2843 27.7091 30 25.5 30C23.2909 30 21.5 23.2843 21.5 15Z" fill="#181818" fill-opacity="0.85"/>
    <path d="M15.5 15C15.5 6.71573 16.8431 -4.07115e-07 18.5 -2.62268e-07C20.1569 -1.17422e-07 21.5 6.71573 21.5 15C21.5 23.2843 20.1569 30 18.5 30C16.8431 30 15.5 23.2843 15.5 15Z" fill="#181818" fill-opacity="0.65"/>
    <path d="M11 15C11 6.71573 12.0074 -3.05336e-07 13.25 -1.96701e-07C14.4926 -8.80661e-08 15.5 6.71573 15.5 15C15.5 23.2843 14.4926 30 13.25 30C12.0074 30 11 23.2843 11 15Z" fill="#181818" fill-opacity="0.45"/>
    <path d="M7.5 15C7.5 6.71573 8.2835 -2.37484e-07 9.25 -1.5299e-07C10.2165 -6.84959e-08 11 6.71573 11 15C11 23.2843 10.2165 30 9.25 30C8.2835 30 7.5 23.2843 7.5 15Z" fill="#181818" fill-opacity="0.35"/>
    <path d="M4.5 15C4.5 6.71573 5.17158 -2.03558e-07 6 -1.31134e-07C6.82843 -5.87108e-08 7.5 6.71573 7.5 15C7.5 23.2843 6.82843 30 6 30C5.17157 30 4.5 23.2843 4.5 15Z" fill="#181818" fill-opacity="0.25"/>
    <path d="M2 15C2 6.71573 2.55965 -1.69631e-07 3.25 -1.09278e-07C3.94036 -4.89256e-08 4.5 6.71573 4.5 15C4.5 23.2843 3.94036 30 3.25 30C2.55964 30 2 23.2843 2 15Z" fill="#181818" fill-opacity="0.15"/>
    <path d="M1.31134e-06 15C2.03558e-06 6.71573 0.447718 -1.35705e-07 1 -8.74228e-08C1.55229 -3.91405e-08 2 6.71573 2 15C2 23.2843 1.55228 30 1 30C0.447715 30 5.87108e-07 23.2843 1.31134e-06 15Z" fill="#181818" fill-opacity="0.05"/>
    </svg>
    