<svg width="14" height="14" viewBox="0 0 14 14" fill="none" xmlns="http://www.w3.org/2000/svg">
    <path
        d="M4.55005 1.05276C3.63502 1.05175 2.75597 1.40913 2.10122 2.04835C1.44647 2.68756 1.06809 3.55777 1.04713 4.47257C1.02617 5.38737 1.3643 6.27399 1.98909 6.94252C2.61388 7.61106 3.47563 8.00832 4.38975 8.04922C4.29589 8.38935 4.23656 8.73808 4.21266 9.09011C3.34389 9.02553 2.51192 8.71289 1.81562 8.18936C1.11932 7.66582 0.587948 6.9534 0.284653 6.13673C-0.0186433 5.32007 -0.0811148 4.4335 0.104661 3.58238C0.290438 2.73125 0.716651 1.95135 1.33266 1.33534C1.94866 0.719337 2.72857 0.293123 3.57969 0.107347C4.43082 -0.0784292 5.31738 -0.0159578 6.13405 0.287338C6.95071 0.590634 7.66314 1.122 8.18667 1.81831C8.71021 2.51461 9.02284 3.34657 9.08743 4.21534C8.73539 4.23925 8.38667 4.29858 8.04653 4.39244C8.00529 3.49285 7.61889 2.64378 6.96769 2.02178C6.31648 1.39978 5.45058 1.05271 4.55005 1.05276ZM8.59463 7.86652C8.54564 7.81798 8.48756 7.77957 8.42372 7.75348C8.35988 7.72739 8.29152 7.71413 8.22256 7.71445C8.15359 7.71478 8.08537 7.72868 8.02177 7.75538C7.95818 7.78207 7.90047 7.82102 7.85194 7.87002C7.8034 7.91902 7.76499 7.97709 7.7389 8.04093C7.7128 8.10477 7.69954 8.17313 7.69987 8.24209C7.70019 8.31106 7.7141 8.37929 7.74079 8.44288C7.76748 8.50647 7.80644 8.56418 7.85544 8.61272L8.70593 9.45481L7.85404 10.3067C7.80245 10.3548 7.76108 10.4127 7.73239 10.4771C7.70369 10.5415 7.68827 10.611 7.68702 10.6815C7.68578 10.752 7.69875 10.8221 7.72515 10.8874C7.75155 10.9528 7.79086 11.0122 7.84071 11.062C7.89056 11.1119 7.94994 11.1512 8.01532 11.1776C8.08069 11.204 8.15071 11.217 8.2212 11.2157C8.29169 11.2145 8.36121 11.199 8.42561 11.1703C8.49001 11.1417 8.54797 11.1003 8.59603 11.0487L9.45003 10.1954L10.3005 11.0487C10.3989 11.1473 10.5324 11.2027 10.6717 11.2029C10.811 11.203 10.9446 11.1478 11.0432 11.0494C11.1418 10.951 11.1973 10.8175 11.1974 10.6782C11.1975 10.5389 11.1423 10.4053 11.0439 10.3067L10.1934 9.45481L11.0418 8.61202C11.1378 8.51333 11.1912 8.38087 11.1905 8.24319C11.1898 8.1055 11.135 7.97361 11.038 7.87593C10.9409 7.77825 10.8094 7.7226 10.6717 7.72097C10.534 7.71934 10.4012 7.77186 10.3019 7.86722L9.45003 8.71352L8.59463 7.86652ZM9.45003 4.90274C8.2433 4.90274 7.08599 5.38211 6.23271 6.23539C5.37942 7.08868 4.90005 8.24598 4.90005 9.45271C4.90005 10.6594 5.37942 11.8167 6.23271 12.67C7.08599 13.5233 8.2433 14.0027 9.45003 14.0027C10.6568 14.0027 11.8141 13.5233 12.6673 12.67C13.5206 11.8167 14 10.6594 14 9.45271C14 8.24598 13.5206 7.08868 12.6673 6.23539C11.8141 5.38211 10.6568 4.90274 9.45003 4.90274ZM5.95005 9.45271C5.95005 8.52446 6.31879 7.63423 6.97517 6.97785C7.63154 6.32148 8.52177 5.95273 9.45003 5.95273C10.3783 5.95273 11.2685 6.32148 11.9249 6.97785C12.5813 7.63423 12.95 8.52446 12.95 9.45271C12.95 10.381 12.5813 11.2712 11.9249 11.9276C11.2685 12.5839 10.3783 12.9527 9.45003 12.9527C8.52177 12.9527 7.63154 12.5839 6.97517 11.9276C6.31879 11.2712 5.95005 10.381 5.95005 9.45271ZM6.49604 3.30675C6.59436 3.40518 6.64958 3.53862 6.64958 3.67774C6.64958 3.81687 6.59436 3.95031 6.49604 4.04874L4.39605 6.14873C4.29762 6.24705 4.16418 6.30227 4.02506 6.30227C3.88593 6.30227 3.7525 6.24705 3.65406 6.14873L2.60406 5.09734C2.50848 4.99828 2.45562 4.86563 2.45688 4.72798C2.45814 4.59033 2.51342 4.45868 2.61081 4.36139C2.70819 4.26409 2.83989 4.20894 2.97755 4.20781C3.1152 4.20668 3.24779 4.25966 3.34676 4.35534L4.02576 5.03504L5.75405 3.30605C5.85248 3.20773 5.98592 3.15251 6.12504 3.15251C6.26417 3.15251 6.39761 3.20843 6.49604 3.30675Z"
        fill="#676767" />
</svg>
    