<svg width="15" height="15" viewBox="0 0 15 15" fill="none" xmlns="http://www.w3.org/2000/svg">
    <path
        d="M13.9419 1.20972H11.5589C11.5112 1.20972 11.4654 1.22883 11.4317 1.26284C11.3979 1.29686 11.3789 1.34299 11.3789 1.39109C11.3789 1.422 11.3886 1.44965 11.4019 1.47487V2.85673C11.402 2.90737 11.3921 2.95753 11.3729 3.00432C11.3537 3.05112 11.3256 3.09364 11.29 3.12945C11.2545 3.16526 11.2123 3.19366 11.1659 3.21301C11.1194 3.23237 11.0697 3.2423 11.0194 3.24225H10.2778C10.2312 3.24225 10.185 3.23299 10.1419 3.21501C10.0989 3.19703 10.0597 3.17066 10.0267 3.13743C9.99377 3.1042 9.96761 3.06475 9.94977 3.02133C9.93192 2.97791 9.92274 2.93138 9.92274 2.88438V1.49723C9.94641 1.4669 9.95971 1.42967 9.96067 1.39109C9.96072 1.36726 9.9561 1.34365 9.94708 1.32162C9.93805 1.29959 9.9248 1.27957 9.90808 1.26272C9.89136 1.24587 9.8715 1.23251 9.84964 1.22341C9.82778 1.21432 9.80436 1.20966 9.78071 1.20972H4.97712C4.9294 1.20972 4.88362 1.22883 4.84988 1.26284C4.81613 1.29686 4.79717 1.34299 4.79717 1.39109C4.79717 1.41915 4.80483 1.44477 4.81613 1.46877V2.86649C4.81613 2.91589 4.80648 2.9648 4.78772 3.01044C4.76896 3.05608 4.74147 3.09755 4.70681 3.13248C4.67216 3.16741 4.63101 3.19512 4.58573 3.21402C4.54045 3.23293 4.49191 3.24266 4.4429 3.24266H3.7844C3.68445 3.24266 3.58859 3.20264 3.51792 3.13141C3.44724 3.06018 3.40754 2.96357 3.40754 2.86283V1.47893C3.4236 1.45245 3.43237 1.42213 3.43296 1.39109C3.43301 1.36726 3.42839 1.34365 3.41937 1.32162C3.41034 1.29959 3.39709 1.27957 3.38037 1.26272C3.36365 1.24587 3.34379 1.23251 3.32193 1.22341C3.30007 1.21432 3.27665 1.20966 3.253 1.20972H0.742062C0.636008 1.20982 0.534322 1.25231 0.459292 1.32785C0.384263 1.40339 0.34201 1.50584 0.341797 1.61273V13.6233C0.341797 13.8462 0.521351 14.0271 0.742062 14.0271H13.9419C14.0481 14.0269 14.1498 13.9843 14.2247 13.9086C14.2997 13.8329 14.3418 13.7303 14.3418 13.6233V1.61273C14.3416 1.50591 14.2994 1.40353 14.2244 1.32799C14.1495 1.25246 14.0479 1.20993 13.9419 1.20972ZM13.9419 13.6644H0.742062C0.736729 13.6644 0.731449 13.6633 0.726527 13.6612C0.721605 13.6592 0.717139 13.6561 0.713387 13.6523C0.709635 13.6485 0.706671 13.644 0.704667 13.639C0.702664 13.634 0.701659 13.6287 0.701713 13.6233V4.56555H13.9819V13.6229C13.982 13.6283 13.981 13.6336 13.9791 13.6386C13.9771 13.6436 13.9742 13.6482 13.9705 13.652C13.9668 13.6559 13.9623 13.659 13.9574 13.6611C13.9525 13.6632 13.9473 13.6643 13.9419 13.6644Z"
        fill="#676767" />
    <path
        d="M4.16043 2.82905C4.25969 2.82905 4.34038 2.74772 4.34038 2.64768V0.208474C4.34038 0.184656 4.33573 0.161071 4.32669 0.139065C4.31764 0.11706 4.30439 0.0970652 4.28768 0.080223C4.27097 0.0633808 4.25113 0.0500209 4.22929 0.040906C4.20746 0.031791 4.18406 0.0270996 4.16043 0.0270996C4.13679 0.0270996 4.11339 0.031791 4.09156 0.040906C4.06973 0.0500209 4.04989 0.0633808 4.03318 0.080223C4.01647 0.0970652 4.00321 0.11706 3.99417 0.139065C3.98512 0.161071 3.98047 0.184656 3.98047 0.208474V2.64808C3.98047 2.74812 4.06117 2.82905 4.16043 2.82905ZM10.6785 2.82905C10.7777 2.82905 10.8584 2.74772 10.8584 2.64768V0.208474C10.8584 0.184656 10.8538 0.161071 10.8447 0.139065C10.8357 0.11706 10.8224 0.0970652 10.8057 0.080223C10.789 0.0633808 10.7692 0.0500209 10.7473 0.040906C10.7255 0.031791 10.7021 0.0270996 10.6785 0.0270996C10.6548 0.0270996 10.6314 0.031791 10.6096 0.040906C10.5878 0.0500209 10.5679 0.0633808 10.5512 0.080223C10.5345 0.0970652 10.5212 0.11706 10.5122 0.139065C10.5032 0.161071 10.4985 0.184656 10.4985 0.208474V2.64808C10.4985 2.74812 10.5788 2.82905 10.6785 2.82905Z"
        fill="#676767" />
    <path
        d="M3.23007 7.30949C3.77782 7.30949 4.22185 6.86196 4.22185 6.3099C4.22185 5.75784 3.77782 5.3103 3.23007 5.3103C2.68232 5.3103 2.23828 5.75784 2.23828 6.3099C2.23828 6.86196 2.68232 7.30949 3.23007 7.30949Z"
        fill="#676767" />
    <path
        d="M6.08163 7.30949C6.62938 7.30949 7.07342 6.86196 7.07342 6.3099C7.07342 5.75784 6.62938 5.3103 6.08163 5.3103C5.53388 5.3103 5.08984 5.75784 5.08984 6.3099C5.08984 6.86196 5.53388 7.30949 6.08163 7.30949Z"
        fill="#676767" />
    <path
        d="M8.93124 7.30949C9.47899 7.30949 9.92303 6.86196 9.92303 6.3099C9.92303 5.75784 9.47899 5.3103 8.93124 5.3103C8.38349 5.3103 7.93945 5.75784 7.93945 6.3099C7.93945 6.86196 8.38349 7.30949 8.93124 7.30949Z"
        fill="#676767" />
    <path
        d="M3.23007 10.0929C3.77782 10.0929 4.22185 9.6454 4.22185 9.09334C4.22185 8.54128 3.77782 8.09375 3.23007 8.09375C2.68232 8.09375 2.23828 8.54128 2.23828 9.09334C2.23828 9.6454 2.68232 10.0929 3.23007 10.0929Z"
        fill="#676767" />
    <path
        d="M6.08163 10.0929C6.62938 10.0929 7.07342 9.6454 7.07342 9.09334C7.07342 8.54128 6.62938 8.09375 6.08163 8.09375C5.53388 8.09375 5.08984 8.54128 5.08984 9.09334C5.08984 9.6454 5.53388 10.0929 6.08163 10.0929Z"
        fill="#676767" />
    <path
        d="M8.93124 10.0929C9.47899 10.0929 9.92303 9.6454 9.92303 9.09334C9.92303 8.54128 9.47899 8.09375 8.93124 8.09375C8.38349 8.09375 7.93945 8.54128 7.93945 9.09334C7.93945 9.6454 8.38349 10.0929 8.93124 10.0929Z"
        fill="#676767" />
    <path
        d="M3.23007 12.8766C3.77782 12.8766 4.22185 12.4291 4.22185 11.877C4.22185 11.325 3.77782 10.8774 3.23007 10.8774C2.68232 10.8774 2.23828 11.325 2.23828 11.877C2.23828 12.4291 2.68232 12.8766 3.23007 12.8766Z"
        fill="#676767" />
    <path
        d="M6.08163 12.8766C6.62938 12.8766 7.07342 12.4291 7.07342 11.877C7.07342 11.325 6.62938 10.8774 6.08163 10.8774C5.53388 10.8774 5.08984 11.325 5.08984 11.877C5.08984 12.4291 5.53388 12.8766 6.08163 12.8766Z"
        fill="#676767" />
    <path
        d="M8.93124 12.8766C9.47899 12.8766 9.92303 12.4291 9.92303 11.877C9.92303 11.325 9.47899 10.8774 8.93124 10.8774C8.38349 10.8774 7.93945 11.325 7.93945 11.877C7.93945 12.4291 8.38349 12.8766 8.93124 12.8766Z"
        fill="#676767" />
    <path
        d="M11.7144 7.30949C12.2622 7.30949 12.7062 6.86196 12.7062 6.3099C12.7062 5.75784 12.2622 5.3103 11.7144 5.3103C11.1667 5.3103 10.7227 5.75784 10.7227 6.3099C10.7227 6.86196 11.1667 7.30949 11.7144 7.30949Z"
        fill="#676767" />
    <path
        d="M11.7144 10.0929C12.2622 10.0929 12.7062 9.6454 12.7062 9.09334C12.7062 8.54128 12.2622 8.09375 11.7144 8.09375C11.1667 8.09375 10.7227 8.54128 10.7227 9.09334C10.7227 9.6454 11.1667 10.0929 11.7144 10.0929Z"
        fill="#676767" />
    <path
        d="M11.7144 12.8766C12.2622 12.8766 12.7062 12.4291 12.7062 11.877C12.7062 11.325 12.2622 10.8774 11.7144 10.8774C11.1667 10.8774 10.7227 11.325 10.7227 11.877C10.7227 12.4291 11.1667 12.8766 11.7144 12.8766Z"
        fill="#676767" />
</svg>
    