<svg width="17" height="16" viewBox="0 0 17 16" fill="none" xmlns="http://www.w3.org/2000/svg">
    <path
        d="M2.75782 5.06379C2.58266 4.92013 2.35789 4.85141 2.13235 4.87255C1.90681 4.8937 1.69872 5.003 1.55332 5.17671L0.460896 6.49327C0.317187 6.66818 0.24834 6.89275 0.269326 7.11814C0.290312 7.34354 0.399433 7.55154 0.572961 7.69691L7.32086 13.2934L4.06411 6.14681L2.75782 5.06379ZM6.03766 2.22793L4.48072 2.93711C4.27523 3.03212 4.11551 3.20435 4.03623 3.4164C3.95694 3.62846 3.96451 3.86323 4.05727 4.06974L7.69299 12.0469L7.8752 4.19464L7.17201 2.65138C6.97525 2.22365 6.4654 2.03288 6.03766 2.22793ZM12.1953 2.40244C12.1999 2.17588 12.1147 1.9567 11.9583 1.79274C11.8018 1.62878 11.5869 1.53336 11.3604 1.5273L9.64943 1.48795C9.42302 1.48358 9.20405 1.5689 9.04028 1.7253C8.87651 1.8817 8.7812 2.09651 8.77515 2.32289L8.57069 11.0854L12.1551 4.09883L12.1953 2.40244ZM16.4555 3.21513L14.9336 2.4341C14.7314 2.33152 14.4969 2.31299 14.2811 2.38252C14.0652 2.45206 13.8856 2.60404 13.7813 2.80537L8.31405 13.461C8.21125 13.6632 8.19259 13.8978 8.26215 14.1137C8.33171 14.3296 8.48383 14.5092 8.68533 14.6133L10.2072 15.3944C10.4091 15.4972 10.6436 15.516 10.8593 15.4466C11.075 15.3772 11.2545 15.2252 11.3587 15.024L16.8259 4.3683C16.9288 4.1661 16.9476 3.93142 16.8783 3.71542C16.8089 3.49941 16.6569 3.31958 16.4555 3.21513ZM10.9874 13.8708C10.9376 13.9732 10.8679 14.0646 10.7824 14.1396C10.6968 14.2147 10.5972 14.272 10.4892 14.3081C10.3813 14.3441 10.2672 14.3583 10.1537 14.3498C10.0403 14.3412 9.9296 14.3101 9.82829 14.2583C9.72697 14.2064 9.63702 14.1348 9.5637 14.0478C9.49038 13.9607 9.43518 13.8599 9.40131 13.7513C9.36745 13.6426 9.35561 13.5283 9.36648 13.415C9.37736 13.3017 9.41074 13.1917 9.46465 13.0915C9.5707 12.8943 9.74979 12.7466 9.9635 12.68C10.1772 12.6134 10.4085 12.6332 10.6078 12.7352C10.807 12.8372 10.9584 13.0132 11.0294 13.2255C11.1003 13.4378 11.0853 13.6695 10.9874 13.8708Z"
        fill="#676767" />
</svg>
    