<svg width="12" height="16" viewBox="0 0 12 16" fill="none" xmlns="http://www.w3.org/2000/svg">
    <path fill-rule="evenodd" clip-rule="evenodd"
        d="M9.1 0C9.65695 0 10.1911 0.221249 10.5849 0.615076C10.9788 1.0089 11.2 1.54305 11.2 2.1V3.5C11.2 4.05695 10.9788 4.5911 10.5849 4.98492C10.1911 5.37875 9.65695 5.6 9.1 5.6C8.54305 5.6 8.0089 5.37875 7.61508 4.98492C7.22125 4.5911 7 4.05695 7 3.5H6.3V10.5H7C7 9.94305 7.22125 9.4089 7.61508 9.01508C8.0089 8.62125 8.54305 8.4 9.1 8.4C9.65695 8.4 10.1911 8.62125 10.5849 9.01508C10.9788 9.4089 11.2 9.94305 11.2 10.5V11.9C11.2 12.457 10.9788 12.9911 10.5849 13.3849C10.1911 13.7788 9.65695 14 9.1 14C8.54305 14 8.0089 13.7788 7.61508 13.3849C7.22125 12.9911 7 12.457 7 11.9H4.2C4.2 12.1758 4.14568 12.4489 4.04015 12.7036C3.93461 12.9584 3.77993 13.1899 3.58492 13.3849C3.38992 13.5799 3.15842 13.7346 2.90364 13.8401C2.64885 13.9457 2.37578 14 2.1 14C1.82422 14 1.55115 13.9457 1.29636 13.8401C1.04158 13.7346 0.810079 13.5799 0.615076 13.3849C0.420073 13.1899 0.265388 12.9584 0.159853 12.7036C0.0543182 12.4489 -4.10938e-09 12.1758 0 11.9V10.5C-4.10938e-09 10.2242 0.0543182 9.95115 0.159853 9.69636C0.265388 9.44158 0.420073 9.21008 0.615076 9.01508C0.810079 8.82007 1.04158 8.66539 1.29636 8.55985C1.55115 8.45432 1.82422 8.4 2.1 8.4C2.37578 8.4 2.64885 8.45432 2.90364 8.55985C3.15842 8.66539 3.38992 8.82007 3.58492 9.01508C3.77993 9.21008 3.93461 9.44158 4.04015 9.69636C4.14568 9.95115 4.2 10.2242 4.2 10.5H4.9V3.5H4.2C4.2 4.05695 3.97875 4.5911 3.58492 4.98492C3.1911 5.37875 2.65695 5.6 2.1 5.6C1.54305 5.6 1.0089 5.37875 0.615076 4.98492C0.221249 4.5911 8.29927e-09 4.05695 0 3.5V2.1C8.29927e-09 1.54305 0.221249 1.0089 0.615076 0.615076C1.0089 0.221249 1.54305 0 2.1 0C2.65695 0 3.1911 0.221249 3.58492 0.615076C3.97875 1.0089 4.2 1.54305 4.2 2.1H7C7 1.54305 7.22125 1.0089 7.61508 0.615076C8.0089 0.221249 8.54305 0 9.1 0ZM9.1 9.8C8.92855 9.80002 8.76306 9.86297 8.63494 9.9769C8.50681 10.0908 8.42496 10.2478 8.4049 10.4181L8.4 10.5V11.9C8.4002 12.0784 8.46852 12.25 8.59099 12.3798C8.71347 12.5095 8.88087 12.5876 9.05898 12.598C9.23709 12.6085 9.41247 12.5505 9.54928 12.436C9.6861 12.3215 9.77403 12.1591 9.7951 11.9819L9.8 11.9V10.5C9.8 10.3143 9.72625 10.1363 9.59498 10.005C9.4637 9.87375 9.28565 9.8 9.1 9.8ZM2.1 9.8C1.92855 9.80002 1.76306 9.86297 1.63494 9.9769C1.50682 10.0908 1.42496 10.2478 1.4049 10.4181L1.4 10.5V11.9C1.4002 12.0784 1.46852 12.25 1.59099 12.3798C1.71347 12.5095 1.88087 12.5876 2.05898 12.598C2.23709 12.6085 2.41247 12.5505 2.54928 12.436C2.6861 12.3215 2.77403 12.1591 2.7951 11.9819L2.8 11.9V10.5C2.8 10.3143 2.72625 10.1363 2.59497 10.005C2.4637 9.87375 2.28565 9.8 2.1 9.8ZM2.1 1.4C1.91435 1.4 1.7363 1.47375 1.60503 1.60503C1.47375 1.7363 1.4 1.91435 1.4 2.1V3.5C1.4 3.68565 1.47375 3.8637 1.60503 3.99497C1.7363 4.12625 1.91435 4.2 2.1 4.2C2.28565 4.2 2.4637 4.12625 2.59497 3.99497C2.72625 3.8637 2.8 3.68565 2.8 3.5V2.1C2.8 1.91435 2.72625 1.7363 2.59497 1.60503C2.4637 1.47375 2.28565 1.4 2.1 1.4ZM9.1 1.4C8.91435 1.4 8.7363 1.47375 8.60502 1.60503C8.47375 1.7363 8.4 1.91435 8.4 2.1V3.5C8.4 3.68565 8.47375 3.8637 8.60502 3.99497C8.7363 4.12625 8.91435 4.2 9.1 4.2C9.28565 4.2 9.4637 4.12625 9.59498 3.99497C9.72625 3.8637 9.8 3.68565 9.8 3.5V2.1C9.8 1.91435 9.72625 1.7363 9.59498 1.60503C9.4637 1.47375 9.28565 1.4 9.1 1.4Z"
        fill="#676767" />
</svg>
    