<svg width="16" height="16" viewBox="0 0 16 16" fill="none" xmlns="http://www.w3.org/2000/svg">
    <path
        d="M7.41176 0.98291C7.62167 0.983143 7.82356 1.06352 7.97619 1.20761C8.12882 1.3517 8.22066 1.54864 8.23297 1.75818C8.24527 1.96772 8.17709 2.17405 8.04237 2.33501C7.90765 2.49597 7.71655 2.59941 7.50812 2.6242L7.41176 2.62997H6.58824V3.4535H8.86447C9.06871 3.45349 9.27118 3.49147 9.46153 3.5655L9.60153 3.62726L12.2656 4.95973C12.5192 5.08637 12.7359 5.27631 12.8946 5.51118C13.0533 5.74605 13.1487 6.0179 13.1715 6.30044L13.1765 6.43303V8.39467H14V7.57115C14.0002 7.36124 14.0806 7.15935 14.2247 7.00672C14.3688 6.85409 14.5657 6.76225 14.7753 6.74994C14.9848 6.73764 15.1911 6.80582 15.3521 6.94054C15.5131 7.07526 15.6165 7.26636 15.6413 7.47479L15.6471 7.57115V10.8653C15.6468 11.0752 15.5665 11.2771 15.4224 11.4297C15.2783 11.5823 15.0813 11.6742 14.8718 11.6865C14.6623 11.6988 14.4559 11.6306 14.295 11.4959C14.134 11.3611 14.0306 11.17 14.0058 10.9616L14 10.8653V10.0417H13.1765V11.277C13.1765 11.509 13.1275 11.7384 13.0327 11.9502C12.9379 12.1619 12.7994 12.3512 12.6264 12.5057L12.5176 12.5947L9.77282 14.6535C9.52906 14.8361 9.23943 14.9476 8.93612 14.9755L8.78459 14.9829H1.64706C1.23153 14.983 0.831298 14.8261 0.526608 14.5436C0.221917 14.261 0.0352828 13.8737 0.00411782 13.4594L8.25737e-08 13.3359V5.10056C-0.000131418 4.68502 0.156805 4.2848 0.43935 3.98011C0.721896 3.67542 1.10917 3.48878 1.52353 3.45762L1.64706 3.4535H4.94118V2.62997H4.11765C3.90775 2.62974 3.70586 2.54936 3.55323 2.40527C3.4006 2.26118 3.30875 2.06424 3.29645 1.8547C3.28415 1.64516 3.35232 1.43883 3.48704 1.27787C3.62176 1.11691 3.81286 1.01347 4.02129 0.988675L4.11765 0.98291H7.41176ZM8.86447 5.10056H1.64706V13.3359H8.78459L11.5294 11.277V6.43303L8.86447 5.10056ZM5.47071 6.73609C5.57907 6.55658 5.75182 6.42516 5.95374 6.36864C6.15565 6.31211 6.37153 6.33474 6.55734 6.4319C6.74315 6.52906 6.8849 6.69343 6.95369 6.89151C7.02248 7.08958 7.01312 7.30644 6.92753 7.49785L6.88224 7.5835L6.39635 8.39467H7.39694C8.01129 8.39467 8.40247 9.03126 8.15459 9.56985L8.11012 9.65467L6.88306 11.7011C6.77598 11.8834 6.6029 12.0176 6.39964 12.0758C6.19639 12.134 5.97854 12.1118 5.79121 12.0138C5.60387 11.9158 5.46141 11.7495 5.39332 11.5493C5.32522 11.3491 5.33671 11.1305 5.42541 10.9386L5.47071 10.8529L5.95659 10.0417H4.95682C4.81772 10.0417 4.68083 10.0069 4.55868 9.9403C4.43654 9.87373 4.33304 9.77758 4.25767 9.66067C4.18229 9.54375 4.13744 9.4098 4.12722 9.27107C4.117 9.13233 4.14174 8.99326 4.19918 8.86656L4.24365 8.78173L5.47071 6.73609Z"
        fill="#676767" />
</svg>
    