<svg width="13" height="14" viewBox="0 0 13 14" fill="none" xmlns="http://www.w3.org/2000/svg">
    <path
        d="M12.2656 3.29269L12.2733 3.28491L9.38 0.391574L8.55556 1.21602L10.1967 2.85713C9.46556 3.13713 8.94444 3.83713 8.94444 4.66935C8.94444 4.9247 8.99474 5.17755 9.09246 5.41346C9.19017 5.64937 9.3334 5.86372 9.51396 6.04428C9.87861 6.40894 10.3732 6.6138 10.8889 6.6138C11.1689 6.6138 11.4256 6.55157 11.6667 6.45046V12.0582C11.6667 12.2645 11.5847 12.4624 11.4389 12.6082C11.293 12.7541 11.0952 12.836 10.8889 12.836C10.6826 12.836 10.4848 12.7541 10.3389 12.6082C10.1931 12.4624 10.1111 12.2645 10.1111 12.0582V8.55824C10.1111 8.14568 9.94722 7.75002 9.6555 7.4583C9.36378 7.16657 8.96811 7.00269 8.55556 7.00269H7.77778V1.55824C7.77778 1.14568 7.61389 0.75002 7.32217 0.458297C7.03044 0.166574 6.63478 0.00268555 6.22222 0.00268555H1.55556C1.143 0.00268555 0.747335 0.166574 0.455612 0.458297C0.163888 0.75002 0 1.14568 0 1.55824V14.0027H7.77778V8.16935H8.94444V12.0582C8.94444 12.5739 9.1493 13.0685 9.51396 13.4332C9.87861 13.7978 10.3732 14.0027 10.8889 14.0027C11.1442 14.0027 11.3971 13.9524 11.633 13.8547C11.8689 13.757 12.0833 13.6137 12.2638 13.4332C12.4444 13.2526 12.5876 13.0383 12.6853 12.8023C12.783 12.5664 12.8333 12.3136 12.8333 12.0582V4.66935C12.8333 4.13269 12.6156 3.64269 12.2656 3.29269ZM6.22222 8.16935V12.4471H1.55556V7.00269H6.22222V8.16935ZM6.22222 5.44713H1.55556V1.55824H6.22222V5.44713ZM10.8889 5.44713C10.6826 5.44713 10.4848 5.36519 10.3389 5.21932C10.1931 5.07346 10.1111 4.87563 10.1111 4.66935C10.1111 4.46307 10.1931 4.26524 10.3389 4.11938C10.4848 3.97352 10.6826 3.89157 10.8889 3.89157C11.0952 3.89157 11.293 3.97352 11.4389 4.11938C11.5847 4.26524 11.6667 4.46307 11.6667 4.66935C11.6667 4.87563 11.5847 5.07346 11.4389 5.21932C11.293 5.36519 11.0952 5.44713 10.8889 5.44713Z"
        fill="#676767" />
</svg>
    