<svg width="18" height="16" viewBox="0 0 18 16" fill="none" xmlns="http://www.w3.org/2000/svg">
    <path
        d="M2.75 4.5C2.28587 4.5 1.84075 4.31563 1.51256 3.98744C1.18437 3.65925 1 3.21413 1 2.75C1 2.28587 1.18437 1.84075 1.51256 1.51256C1.84075 1.18437 2.28587 1 2.75 1C3.21413 1 3.65925 1.18437 3.98744 1.51256C4.31563 1.84075 4.5 2.28587 4.5 2.75C4.5 3.21413 4.31563 3.65925 3.98744 3.98744C3.65925 4.31563 3.21413 4.5 2.75 4.5ZM2.75 4.5V11.5M8.875 4.5C8.41087 4.5 7.96575 4.31563 7.63756 3.98744C7.30937 3.65925 7.125 3.21413 7.125 2.75C7.125 2.28587 7.30937 1.84075 7.63756 1.51256C7.96575 1.18437 8.41087 1 8.875 1C9.33913 1 9.78425 1.18437 10.1124 1.51256C10.4406 1.84075 10.625 2.28587 10.625 2.75C10.625 3.21413 10.4406 3.65925 10.1124 3.98744C9.78425 4.31563 9.33913 4.5 8.875 4.5ZM8.875 4.5V11.5M2.75 11.5C3.21413 11.5 3.65925 11.6844 3.98744 12.0126C4.31563 12.3408 4.5 12.7859 4.5 13.25C4.5 13.7141 4.31563 14.1592 3.98744 14.4874C3.65925 14.8156 3.21413 15 2.75 15C2.28587 15 1.84075 14.8156 1.51256 14.4874C1.18437 14.1592 1 13.7141 1 13.25C1 12.7859 1.18437 12.3408 1.51256 12.0126C1.84075 11.6844 2.28587 11.5 2.75 11.5ZM8.875 11.5C9.33913 11.5 9.78425 11.6844 10.1124 12.0126C10.4406 12.3408 10.625 12.7859 10.625 13.25C10.625 13.7141 10.4406 14.1592 10.1124 14.4874C9.78425 14.8156 9.33913 15 8.875 15C8.41087 15 7.96575 14.8156 7.63756 14.4874C7.30937 14.1592 7.125 13.7141 7.125 13.25C7.125 12.7859 7.30937 12.3408 7.63756 12.0126C7.96575 11.6844 8.41087 11.5 8.875 11.5ZM13.25 2.75C13.25 3.21413 13.4344 3.65925 13.7626 3.98744C14.0908 4.31563 14.5359 4.5 15 4.5C15.4641 4.5 15.9092 4.31563 16.2374 3.98744C16.5656 3.65925 16.75 3.21413 16.75 2.75C16.75 2.28587 16.5656 1.84075 16.2374 1.51256C15.9092 1.18437 15.4641 1 15 1C14.5359 1 14.0908 1.18437 13.7626 1.51256C13.4344 1.84075 13.25 2.28587 13.25 2.75Z"
        stroke="#676767" stroke-width="2" stroke-linecap="round" stroke-linejoin="round" />
    <path d="M17 5V7C17 7.53043 16.7893 8.03914 16.4142 8.41421C16.0391 8.78929 15.5304 9 15 9H3"
        stroke="#676767" stroke-width="2" stroke-linecap="round" stroke-linejoin="round" />
</svg>
    