<svg width="14" height="15" viewBox="0 0 14 15" fill="none" xmlns="http://www.w3.org/2000/svg">
    <path
        d="M4.52256 1.01458C4.69545 1.0579 4.84406 1.16812 4.93569 1.32101C5.02732 1.47389 5.05446 1.65691 5.01115 1.82981L2.32287 12.5829C2.30271 12.6699 2.26545 12.7519 2.21326 12.8243C2.16107 12.8966 2.09498 12.9579 2.01887 13.0045C1.94275 13.051 1.85813 13.082 1.76993 13.0955C1.68173 13.109 1.59173 13.1048 1.50516 13.0831C1.4186 13.0615 1.33721 13.0228 1.26575 12.9694C1.19429 12.916 1.13418 12.8489 1.08893 12.772C1.04368 12.6951 1.01419 12.6099 1.0022 12.5215C0.990199 12.4331 0.995928 12.3432 1.01905 12.257L3.70733 1.50385C3.72871 1.41818 3.76676 1.33756 3.8193 1.2666C3.87185 1.19565 3.93786 1.13574 4.01357 1.0903C4.08927 1.04486 4.17319 1.01479 4.26053 1.0018C4.34786 0.988805 4.4369 0.99315 4.52256 1.01458ZM10.3877 1.50318L13.076 12.2563C13.0991 12.3425 13.1049 12.4324 13.0929 12.5208C13.0809 12.6093 13.0514 12.6944 13.0061 12.7713C12.9609 12.8482 12.9008 12.9153 12.8293 12.9687C12.7578 13.0222 12.6765 13.0608 12.5899 13.0825C12.5033 13.1041 12.4133 13.1083 12.3251 13.0948C12.2369 13.0813 12.1523 13.0503 12.0762 13.0038C12.0001 12.9572 11.934 12.896 11.8818 12.8236C11.8296 12.7512 11.7923 12.6692 11.7722 12.5823L9.0839 1.82913C9.06078 1.74295 9.05505 1.65303 9.06705 1.56462C9.07905 1.4762 9.10853 1.39106 9.15378 1.31416C9.19903 1.23725 9.25914 1.17013 9.3306 1.1167C9.40207 1.06328 9.48345 1.02462 9.57002 1.00298C9.65658 0.981336 9.74659 0.977149 9.83478 0.99066C9.92298 1.00417 10.0076 1.03511 10.0837 1.08167C10.1598 1.12823 10.2259 1.18948 10.2781 1.26185C10.3303 1.33422 10.3676 1.41626 10.3877 1.50318ZM7.04753 10.4034C7.21214 10.4034 7.37102 10.4639 7.49403 10.5733C7.61705 10.6826 7.69563 10.8334 7.71489 10.9969L7.7196 11.0755V12.4196C7.71941 12.5909 7.65382 12.7557 7.53623 12.8802C7.41863 13.0048 7.25792 13.0798 7.08692 13.0898C6.91591 13.0998 6.74753 13.0442 6.61617 12.9343C6.48481 12.8243 6.40039 12.6684 6.38016 12.4983L6.37546 12.4196V11.0755C6.37546 10.8972 6.44626 10.7263 6.5723 10.6003C6.69834 10.4742 6.86928 10.4034 7.04753 10.4034ZM7.04753 5.69892C7.22577 5.69892 7.39672 5.76973 7.52275 5.89576C7.64879 6.0218 7.7196 6.19275 7.7196 6.37099V7.71513C7.7196 7.89338 7.64879 8.06432 7.52275 8.19036C7.39672 8.3164 7.22577 8.3872 7.04753 8.3872C6.86928 8.3872 6.69834 8.3164 6.5723 8.19036C6.44626 8.06432 6.37546 7.89338 6.37546 7.71513V6.37099C6.37546 6.19275 6.44626 6.0218 6.5723 5.89576C6.69834 5.76973 6.86928 5.69892 7.04753 5.69892ZM7.04753 0.994421C7.21214 0.994443 7.37102 1.05488 7.49403 1.16426C7.61705 1.27365 7.69563 1.42438 7.71489 1.58786L7.7196 1.66649V3.01063C7.71941 3.18193 7.65382 3.34669 7.53623 3.47125C7.41863 3.59581 7.25792 3.67077 7.08692 3.6808C6.91591 3.69084 6.74753 3.63521 6.61617 3.52526C6.48481 3.41532 6.40039 3.25937 6.38016 3.08927L6.37546 3.01063V1.66649C6.37546 1.48825 6.44626 1.3173 6.5723 1.19127C6.69834 1.06523 6.86928 0.994421 7.04753 0.994421Z"
        fill="#676767" />
</svg>
    