<svg width="25" height="26" viewBox="0 0 25 26" fill="none" xmlns="http://www.w3.org/2000/svg">
<path d="M12.1074 2.84688L7.12583 0.5765L1.67186 14.5079L1.10717 14.8259L1.11217 14.8345L0.6705 15.0895L6.6705 25.4818L24.857 14.9818L18.857 4.58954L18.0239 5.07054L13.5668 1.17867L12.1074 2.84688ZM16.194 6.12704L7.5095 11.141L12.7048 5.20164L13.7794 4.01889L16.194 6.12704ZM10.7332 4.41858L5.3701 10.5495L8.21905 3.27202L10.7332 4.41858ZM6.48705 21.1641L4.31705 17.4056C4.60817 17.0654 4.81947 16.6645 4.93546 16.2321C5.05145 15.7996 5.06919 15.3468 4.98738 14.9066L16.5402 8.23659C16.8804 8.52775 17.2816 8.73903 17.7141 8.85493C18.1467 8.97084 18.5997 8.98843 19.04 8.90642L21.21 12.665C20.9188 13.0052 20.7075 13.4064 20.5916 13.8389C20.4757 14.2715 20.4581 14.7245 20.5402 15.1648L8.98911 21.8338C8.6482 21.543 8.24667 21.3319 7.8138 21.2161C7.38093 21.1002 6.92765 21.0824 6.48705 21.1641Z" fill="white"/>
</svg>
