<svg width="32" height="32" viewBox="0 0 32 32" fill="none" xmlns="http://www.w3.org/2000/svg">
<path fill-rule="evenodd" clip-rule="evenodd" d="M23.2129 31.1852C20.0262 31.1852 17.2761 29.361 16.0001 26.7246C14.724 29.361 11.9739 31.1852 8.78716 31.1852C4.38423 31.1852 0.814941 27.703 0.814941 23.4074C0.814941 19.9414 3.1388 17.0049 6.34937 16C3.1388 14.9951 0.814941 12.0586 0.814941 8.5926C0.814941 4.29705 4.38423 0.814819 8.78716 0.814819C11.9739 0.814819 14.724 2.63903 16.0001 5.27549C17.2762 2.63903 20.0262 0.814819 23.213 0.814819C27.6159 0.814819 31.1852 4.29705 31.1852 8.5926C31.1852 12.0586 28.8613 14.9951 25.6508 16C28.8613 17.0049 31.1852 19.9414 31.1852 23.4074C31.1852 27.703 27.6159 31.1852 23.2129 31.1852Z" fill="white"/>
</svg>
