<svg width="26" height="26" viewBox="0 0 26 26" fill="none" xmlns="http://www.w3.org/2000/svg">
<path fill-rule="evenodd" clip-rule="evenodd" d="M25.963 6.70365C25.963 9.52513 22.6523 11.9372 17.9753 12.9105C22.6522 13.5053 25.963 14.9794 25.963 16.7036C25.963 18.2802 23.1948 19.6477 19.1451 20.325C23.1948 20.756 25.963 21.6262 25.963 22.6295C25.963 24.0614 20.3251 25.2221 13.3704 25.2221C6.41567 25.2221 0.777778 24.0614 0.777778 22.6295C0.777778 21.6262 3.54597 20.756 7.59568 20.325C3.54597 19.6477 0.777778 18.2802 0.777778 16.7036C0.777778 14.9793 4.08853 13.5053 8.76553 12.9105C4.08856 11.9372 0.777832 9.52512 0.777832 6.70365C0.777832 3.02176 6.41573 0.0369873 13.3704 0.0369873C20.3251 0.0369873 25.963 3.02176 25.963 6.70365Z" fill="white"/>
</svg>
