<svg width="22" height="26" viewBox="0 0 22 26" fill="none" xmlns="http://www.w3.org/2000/svg">
<path d="M12.3055 12.7468C12.5885 12.507 12.9105 12.2063 13.2947 11.8476L18.8373 6.67272C20.856 4.78799 21.8653 3.84563 21.5703 2.94657C21.2752 2.04752 19.9038 1.88643 17.1609 1.56425L7.42571 0.420751C4.68283 0.0985711 3.31138 -0.0625191 2.81605 0.743698C2.32071 1.54991 3.0842 2.70052 4.61119 5.00172L8.80378 11.3201C9.15862 11.8548 9.44335 12.2839 9.70005 12.6123L0.742948 20.7997C-0.188274 21.6509 0.30272 23.2022 1.55411 23.3626L17.6176 25.4217C18.869 25.5822 19.7354 24.2048 19.0489 23.1463L12.3055 12.7468Z" fill="white"/>
</svg>
