<svg width="32" height="32" viewBox="0 0 32 32" fill="none" xmlns="http://www.w3.org/2000/svg">
    <path
        d="M28.1902 0H3.80978C2.79965 0.000941405 1.83117 0.40263 1.1169 1.1169C0.40263 1.83117 0.000941405 2.79965 0 3.80978V28.1902C0 30.2933 1.70844 32 3.80978 32H28.1902C29.2003 31.9991 30.1688 31.5974 30.8831 30.8831C31.5974 30.1688 31.9991 29.2003 32 28.1902V3.80978C31.9991 2.79965 31.5974 1.83117 30.8831 1.1169C30.1688 0.40263 29.2003 0.000941405 28.1902 0ZM25.1467 13.9609C24.0253 14.0698 22.8971 13.84 21.9076 13.3013C21.073 12.8514 20.3641 12.1999 19.8453 11.4062V20.1956C19.8453 21.4803 19.4643 22.7363 18.7506 23.8045C18.0368 24.8728 17.0222 25.7054 15.8352 26.1971C14.6483 26.6887 13.3421 26.8174 12.082 26.5667C10.8219 26.3161 9.66445 25.6974 8.75597 24.7889C7.84749 23.8804 7.2288 22.723 6.97815 21.4629C6.7275 20.2028 6.85615 18.8966 7.34781 17.7096C7.83948 16.5227 8.67209 15.5081 9.74035 14.7943C10.8086 14.0805 12.0645 13.6996 13.3493 13.6996C13.4844 13.6996 13.616 13.712 13.7493 13.7191V16.9209C13.616 16.9049 13.4862 16.88 13.3493 16.88C12.47 16.88 11.6267 17.2293 11.0049 17.8511C10.3831 18.4729 10.0338 19.3162 10.0338 20.1956C10.0338 21.0749 10.3831 21.9182 11.0049 22.54C11.6267 23.1618 12.47 23.5111 13.3493 23.5111C15.1804 23.5111 16.7982 22.0693 16.7982 20.2382L16.8302 5.30844H19.8933C20.0335 6.63898 20.6368 7.87797 21.5976 8.80894C22.5585 9.73992 23.8159 10.3037 25.1502 10.4018V13.9609"
        fill="white" />
</svg>
    