<svg width="22" height="11" viewBox="0 0 22 11" fill="none" xmlns="http://www.w3.org/2000/svg">
    <path
        d="M8.34668 0.675781L4.75781 10.6699H3.58887L0 0.675781H1.2168L3.55469 7.25879C3.65039 7.52311 3.7347 7.77604 3.80762 8.01758C3.88509 8.25911 3.95345 8.49154 4.0127 8.71484C4.07194 8.93815 4.12435 9.15462 4.16992 9.36426C4.21549 9.15462 4.2679 8.93815 4.32715 8.71484C4.38639 8.48698 4.45475 8.25228 4.53223 8.01074C4.6097 7.76465 4.69629 7.50716 4.79199 7.23828L7.11621 0.675781H8.34668ZM9.7207 10.6699V0.675781H10.8828V10.6699H9.7207ZM21.4443 10.6699H20.1045L14.6562 2.27539H14.6016C14.6152 2.4987 14.6312 2.75391 14.6494 3.04102C14.6676 3.32357 14.6813 3.62663 14.6904 3.9502C14.7041 4.26921 14.7109 4.59505 14.7109 4.92773V10.6699H13.6309V0.675781H14.9639L20.3916 9.04297H20.4395C20.4303 8.88346 20.4189 8.65788 20.4053 8.36621C20.3916 8.06999 20.3779 7.75326 20.3643 7.41602C20.3551 7.07422 20.3506 6.75749 20.3506 6.46582V0.675781H21.4443V10.6699Z"
        fill="#676767" />
</svg>
    